<?xml version="1.0" encoding="utf-8"?>
<!-- Generator: Adobe Illustrator 23.0.1, SVG Export Plug-In . SVG Version: 6.00 Build 0)  -->
<svg version="1.1" id="Layer_1" xmlns="http://www.w3.org/2000/svg" xmlns:xlink="http://www.w3.org/1999/xlink" x="0px" y="0px"
	 viewBox="0 0 100 100" style="enable-background:new 0 0 100 100;" xml:space="preserve">
<path d="M87.3,48.2h-35l3.9-5.1c2-2.6,1.5-6.4-1.1-8.4l-4.8-3.6c-1.3-1-2.8-1.4-4.4-1.2c-1.6,0.2-3,1-4,2.3l-9.2,12
	c-0.5-1.3-1.4-2.4-2.5-3.3c-3.5-2.7-8.5-2-11.2,1.5c-1.3,1.7-1.9,3.8-1.6,5.9c0,0.2,0.1,0.3,0.1,0.5c-2.2,0.2-4.4,1.2-5.8,3.1
	c-1.3,1.7-1.9,3.8-1.6,5.9c0.3,2.1,1.4,4,3.1,5.3c1.2,0.9,2.5,1.4,3.8,1.6l-9.2,12c-2,2.6-1.5,6.4,1.1,8.4l4.8,3.7
	c1,0.8,2.3,1.2,3.6,1.2c0.3,0,0.5,0,0.8,0c1.6-0.2,3-1,4-2.3l11.1-14.5v13.2c0,3.3,2.7,6,6,6h48c3.3,0,6-2.7,6-6v-32
	C93.3,50.9,90.6,48.2,87.3,48.2z M22.2,44.8c0.8-1,2-1.6,3.2-1.6c0.8,0,1.7,0.3,2.4,0.8c1.8,1.3,2.1,3.9,0.8,5.6l-2.4,3.2L23,50.4
	c-0.8-0.6-1.4-1.6-1.5-2.6S21.6,45.6,22.2,44.8z M15.7,59.9c-0.8-0.7-1.4-1.6-1.5-2.7c-0.1-1.1,0.1-2.1,0.8-3c0.8-1,2-1.6,3.2-1.6
	c0.9,0,1.7,0.3,2.4,0.8l3.2,2.4l-2.4,3.2C19.9,61,17.4,61.3,15.7,59.9z M19,85.2c-0.3,0.4-0.8,0.7-1.3,0.8c-0.5,0.1-1.1-0.1-1.5-0.4
	l-4.8-3.7c-0.9-0.7-1-1.9-0.4-2.8l13.4-17.5c0,0,0,0,0,0l3.6-4.8l3.7-4.8l13.4-17.5c0.3-0.4,0.8-0.7,1.3-0.8c0.1,0,0.2,0,0.3,0
	c0.4,0,0.8,0.1,1.2,0.4l4.8,3.6c0.9,0.7,1,1.9,0.4,2.8L19,85.2z M56.3,88.2h-17c-1.1,0-2-0.9-2-2V67.9l11.9-15.6h7.1V88.2z
	 M66.3,88.2h-6v-36h6V88.2z M89.3,86.2c0,1.1-0.9,2-2,2h-17v-36h17c1.1,0,2,0.9,2,2V86.2z M53.8,25.8l8.3,6.5
	c0.4,0.3,0.8,0.4,1.2,0.4s0.9-0.1,1.2-0.4l8.3-6.5c4-3.3,5.7-7.7,4.3-11.9c-1.1-3.5-4.1-6-7.4-6.1c-2.3-0.1-4.6,0.6-6.4,2.1
	c-1.6-1.4-3.7-2.1-5.9-2.1c-0.2,0-0.3,0-0.5,0c-3.3,0.2-6.3,2.7-7.4,6.1C48.1,18,49.7,22.5,53.8,25.8z M53.3,15.1
	c0.6-1.9,2.2-3.3,3.8-3.4c0.1,0,0.2,0,0.3,0c1.7,0,3.3,0.8,4.3,2.2c0.4,0.5,1,0.8,1.6,0.8s1.3-0.3,1.6-0.8c1-1.4,2.6-2.2,4.3-2.2
	c0.1,0,0.2,0,0.3,0c1.6,0.1,3.2,1.5,3.8,3.4c0.8,2.5-0.3,5.3-3,7.5l-7,5.5l-7-5.5C53.6,20.4,52.4,17.7,53.3,15.1z"/>
</svg>
